<svg width="1000" height="355" viewBox="0 0 1000 355" fill="none" xmlns="http://www.w3.org/2000/svg">
<path d="M650.909 269V340H637.209V309.7H605.009V340H591.209V269H605.009V297.7H637.209V269H650.909ZM745.02 269H759.02L785.12 340H770.92L764.32 322.3H739.52L733.02 340H718.82L745.02 269ZM761.82 312.6L752.02 283.3L741.82 312.6H761.82ZM818.508 353.6V327.9H822.308C824.108 327.9 825.674 327.2 827.008 325.8C828.341 324.4 829.474 322.167 830.408 319.1C831.341 316.033 832.074 312.067 832.608 307.2C833.208 302.267 833.608 296.3 833.808 289.3L834.408 269H881.708V327.9H891.108V353.6H879.008V340H830.608V353.6H818.508ZM838.808 327.9H868.008V281.1H846.908L846.708 291.1C846.508 298.033 846.108 303.933 845.508 308.8C844.974 313.667 844.174 317.667 843.108 320.8C842.108 323.933 840.674 326.3 838.808 327.9ZM962.114 340.5C956.914 340.5 952.181 339.5 947.914 337.5C943.714 335.5 940.081 332.8 937.014 329.4C934.014 325.933 931.681 322.067 930.014 317.8C928.347 313.467 927.514 309.033 927.514 304.5C927.514 299.767 928.381 295.267 930.114 291C931.914 286.667 934.347 282.833 937.414 279.5C940.547 276.1 944.214 273.433 948.414 271.5C952.681 269.5 957.347 268.5 962.414 268.5C967.547 268.5 972.214 269.533 976.414 271.6C980.681 273.667 984.314 276.433 987.314 279.9C990.314 283.367 992.647 287.233 994.314 291.5C995.981 295.767 996.814 300.167 996.814 304.7C996.814 309.367 995.947 313.867 994.214 318.2C992.481 322.467 990.047 326.3 986.914 329.7C983.847 333.033 980.181 335.667 975.914 337.6C971.714 339.533 967.114 340.5 962.114 340.5ZM941.514 304.5C941.514 307.567 941.981 310.533 942.914 313.4C943.847 316.267 945.181 318.833 946.914 321.1C948.714 323.3 950.881 325.067 953.414 326.4C956.014 327.667 958.947 328.3 962.214 328.3C965.547 328.3 968.514 327.633 971.114 326.3C973.714 324.9 975.881 323.067 977.614 320.8C979.347 318.467 980.647 315.9 981.514 313.1C982.447 310.233 982.914 307.367 982.914 304.5C982.914 301.433 982.414 298.5 981.414 295.7C980.481 292.833 979.114 290.3 977.314 288.1C975.581 285.833 973.414 284.067 970.814 282.8C968.281 281.467 965.414 280.8 962.214 280.8C958.814 280.8 955.814 281.5 953.214 282.9C950.681 284.233 948.547 286.033 946.814 288.3C945.081 290.567 943.747 293.1 942.814 295.9C941.947 298.7 941.514 301.567 941.514 304.5Z" fill="white"/>
<path d="M346.5 161.1H323.8V220H310.1V161.1H287.4V149H346.5V161.1ZM434.614 207.9V220H385.314V149H433.714V161.1H399.114V178.2H429.014V189.4H399.114V207.9H434.614ZM475.573 220V149H526.773V160.9H489.273V178H508.573C516.506 178 522.473 179.867 526.473 183.6C530.473 187.333 532.473 192.333 532.473 198.6C532.473 202.8 531.606 206.5 529.873 209.7C528.139 212.9 525.573 215.433 522.173 217.3C518.773 219.1 514.473 220 509.273 220H475.573ZM489.273 208.1H507.373C510.039 208.1 512.173 207.633 513.773 206.7C515.373 205.7 516.539 204.467 517.273 203C518.006 201.467 518.373 199.867 518.373 198.2C518.373 196.533 518.039 195 517.373 193.6C516.773 192.133 515.673 190.967 514.073 190.1C512.473 189.167 510.173 188.7 507.173 188.7H489.273V208.1ZM651.47 207.9V220H602.17V149H650.57V161.1H615.97V178.2H645.87V189.4H615.97V207.9H651.47Z" fill="white"/>
<path d="M37.7 93.5C32.5 93.5 27.7667 92.5 23.5 90.5C19.3 88.5 15.6667 85.8 12.6 82.4C9.6 78.9333 7.26667 75.0667 5.6 70.8C3.93333 66.4667 3.1 62.0333 3.1 57.5C3.1 52.7667 3.96667 48.2667 5.7 44C7.5 39.6667 9.93333 35.8333 13 32.5C16.1333 29.1 19.8 26.4333 24 24.5C28.2667 22.5 32.9333 21.5 38 21.5C43.1333 21.5 47.8 22.5333 52 24.6C56.2667 26.6667 59.9 29.4333 62.9 32.9C65.9 36.3667 68.2333 40.2333 69.9 44.5C71.5667 48.7667 72.4 53.1667 72.4 57.7C72.4 62.3667 71.5333 66.8667 69.8 71.2C68.0667 75.4667 65.6333 79.3 62.5 82.7C59.4333 86.0333 55.7667 88.6667 51.5 90.6C47.3 92.5333 42.7 93.5 37.7 93.5ZM17.1 57.5C17.1 60.5667 17.5667 63.5333 18.5 66.4C19.4333 69.2667 20.7667 71.8333 22.5 74.1C24.3 76.3 26.4667 78.0667 29 79.4C31.6 80.6667 34.5333 81.3 37.8 81.3C41.1333 81.3 44.1 80.6333 46.7 79.3C49.3 77.9 51.4667 76.0667 53.2 73.8C54.9333 71.4667 56.2333 68.9 57.1 66.1C58.0333 63.2333 58.5 60.3667 58.5 57.5C58.5 54.4333 58 51.5 57 48.7C56.0667 45.8333 54.7 43.3 52.9 41.1C51.1667 38.8333 49 37.0667 46.4 35.8C43.8667 34.4667 41 33.8 37.8 33.8C34.4 33.8 31.4 34.5 28.8 35.9C26.2667 37.2333 24.1333 39.0333 22.4 41.3C20.6667 43.5667 19.3333 46.1 18.4 48.9C17.5333 51.7 17.1 54.5667 17.1 57.5ZM172.686 22V93H158.986V62.7H126.786V93H112.986V22H126.786V50.7H158.986V22H172.686ZM277.798 93.5C272.598 93.5 267.864 92.5 263.598 90.5C259.398 88.5 255.764 85.8 252.698 82.4C249.698 78.9333 247.364 75.0667 245.698 70.8C244.031 66.4667 243.198 62.0333 243.198 57.5C243.198 52.7667 244.064 48.2667 245.798 44C247.598 39.6667 250.031 35.8333 253.098 32.5C256.231 29.1 259.898 26.4333 264.098 24.5C268.364 22.5 273.031 21.5 278.098 21.5C283.231 21.5 287.898 22.5333 292.098 24.6C296.364 26.6667 299.998 29.4333 302.998 32.9C305.998 36.3667 308.331 40.2333 309.998 44.5C311.664 48.7667 312.498 53.1667 312.498 57.7C312.498 62.3667 311.631 66.8667 309.898 71.2C308.164 75.4667 305.731 79.3 302.598 82.7C299.531 86.0333 295.864 88.6667 291.598 90.6C287.398 92.5333 282.798 93.5 277.798 93.5ZM257.198 57.5C257.198 60.5667 257.664 63.5333 258.598 66.4C259.531 69.2667 260.864 71.8333 262.598 74.1C264.398 76.3 266.564 78.0667 269.098 79.4C271.698 80.6667 274.631 81.3 277.898 81.3C281.231 81.3 284.198 80.6333 286.798 79.3C289.398 77.9 291.564 76.0667 293.298 73.8C295.031 71.4667 296.331 68.9 297.198 66.1C298.131 63.2333 298.598 60.3667 298.598 57.5C298.598 54.4333 298.098 51.5 297.098 48.7C296.164 45.8333 294.798 43.3 292.998 41.1C291.264 38.8333 289.098 37.0667 286.498 35.8C283.964 34.4667 281.098 33.8 277.898 33.8C274.498 33.8 271.498 34.5 268.898 35.9C266.364 37.2333 264.231 39.0333 262.498 41.3C260.764 43.5667 259.431 46.1 258.498 48.9C257.631 51.7 257.198 54.5667 257.198 57.5Z" fill="white"/>
</svg>
